<?xml version="1.0" encoding="iso-8859-1"?>
<!-- Generator: Adobe Illustrator 19.0.0, SVG Export Plug-In . SVG Version: 6.00 Build 0)  -->
<svg version="1.1" id="Capa_1" xmlns="http://www.w3.org/2000/svg" xmlns:xlink="http://www.w3.org/1999/xlink" x="0px" y="0px"
	 viewBox="0 0 512 512" style="enable-background:new 0 0 512 512;" xml:space="preserve">
<g>
	<g>
		<path d="M437.02,74.98C388.667,26.629,324.38,0,256,0S123.333,26.629,74.98,74.98C26.629,123.333,0,187.62,0,256
			s26.629,132.667,74.98,181.02C123.333,485.371,187.62,512,256,512s132.667-26.629,181.02-74.98
			C485.371,388.667,512,324.38,512,256S485.371,123.333,437.02,74.98z M415.806,415.806C373.12,458.492,316.367,482,256,482
			s-117.12-23.508-159.806-66.194C53.508,373.12,30,316.367,30,256S53.508,138.88,96.194,96.194C138.88,53.508,195.633,30,256,30
			s117.12,23.508,159.806,66.194C458.492,138.88,482,195.633,482,256S458.492,373.12,415.806,415.806z"/>
	</g>
</g>
<g>
	<g>
		<path d="M256,60C147.925,60,60,147.925,60,256s87.925,196,196,196s196-87.925,196-196S364.075,60,256,60z M256,422
			c-91.533,0-166-74.467-166-166S164.467,90,256,90s166,74.467,166,166S347.533,422,256,422z"/>
	</g>
</g>
<g>
	<g>
		<path d="M332.149,219.271c0-22.429-14.353-41.562-34.353-48.718v-19.787h-30v16.775h-12.939v-16.775h-30v16.775h-22.329V241v30
			v73.459h22.329v16.775h30v-16.775h12.939v16.775h30v-19.787c20-7.156,34.353-26.289,34.353-48.718
			c0-14.349-5.877-27.349-15.345-36.729C326.273,246.62,332.149,233.62,332.149,219.271z M280.42,314.458h-47.892V271h47.892
			c11.981,0,21.729,9.748,21.729,21.729C302.149,304.71,292.401,314.458,280.42,314.458z M280.42,241h-47.892v-43.459h47.892
			c11.981,0,21.729,9.748,21.729,21.729C302.149,231.251,292.401,241,280.42,241z"/>
	</g>
</g>
<g>
</g>
<g>
</g>
<g>
</g>
<g>
</g>
<g>
</g>
<g>
</g>
<g>
</g>
<g>
</g>
<g>
</g>
<g>
</g>
<g>
</g>
<g>
</g>
<g>
</g>
<g>
</g>
<g>
</g>
</svg>
