<?xml version="1.0" encoding="iso-8859-1"?>
<!-- Generator: Adobe Illustrator 19.0.0, SVG Export Plug-In . SVG Version: 6.00 Build 0)  -->
<svg version="1.1" id="Capa_1" xmlns="http://www.w3.org/2000/svg" xmlns:xlink="http://www.w3.org/1999/xlink" x="0px" y="0px"
	 viewBox="0 0 511.998 511.998" style="enable-background:new 0 0 511.998 511.998;" xml:space="preserve">
<g>
	<path style="fill:#FFAF46;" d="M27.928,353.128l31.058,55.672c24.247,41.997,71.614,65.169,127.883,68.494l-38.075-60.386
		C96.362,412.84,52.217,391.245,27.928,353.128z"/>
	<path style="fill:#FFAF46;" d="M455.312,107.559c42.201,81.171-15.346,198.772-131.088,265.408
		c-52.824,31.698-113.867,46.993-175.395,43.941l38.075,60.403c60.241,2.004,119.784-13.436,171.457-44.461l-34.102-59.073
		l34.102,59.073c52.577-29.183,95.631-72.885,124.029-125.888l-35.705-56.601l35.705,56.601
		c25.466-50.565,29.14-103.295,4.834-145.403L455.312,107.559z M246.164,409.021l29.839,51.69L246.164,409.021z M390.586,323.595
		l33.079,51.835L390.586,323.595z"/>
	<path style="fill:#FFAF46;" d="M148.828,416.907l-2.072-3.282L148.828,416.907c61.537,3.061,122.597-12.234,175.43-43.941
		c115.777-66.635,173.29-184.236,131.088-265.408l-3.206-5.371l3.172,5.371c-0.853-1.603-1.628-3.223-2.558-4.791
		c-47.052-81.274-180.911-92.076-299.007-24.119S-21.827,267.583,25.234,348.848c0.853,1.466,1.79,2.865,2.694,4.263l-2.063-3.683
		l2.063,3.7C52.217,391.245,96.362,412.84,148.828,416.907z M170.798,108.01c99.919-57.547,215.542-52.21,252.5,11.637
		s-16.207,166.41-116.092,223.957s-215.568,52.21-252.526-11.637S70.914,165.558,170.798,108.01z"/>
	<path style="fill:#FFAF46;" d="M307.207,343.605C407.117,286.057,460.3,183.504,423.35,119.648s-152.607-69.185-252.551-11.637
		S17.731,268.111,54.681,331.967S207.262,401.143,307.207,343.605z M167.985,188.363l14.212-8.21
		c0.537-0.315-12.251-22.465-12.251-22.465s12.788,22.166,12.234,22.465l30.087-17.366l-12.788-22.166l12.788,22.166l14.766-8.526
		c16.369-9.31,37.188-3.581,46.498,12.788c9.225,16.216,3.7,36.839-12.396,46.277l14.766-8.526
		c16.369-9.31,37.188-3.581,46.498,12.788c9.225,16.216,3.7,36.839-12.396,46.277l-29.532,17.051l12.788,22.166l-12.788-22.166
		l-29.532,17.051l12.788,22.166l-12.788-22.166l-14.766,8.526l-22.166,12.788l22.166-12.788l-34.102-59.065l-34.102-59.065
		l-22.166,12.788L167.985,188.363z"/>
	<path style="fill:#FFAF46;" d="M261.169,213.326c16.25-9.523,21.697-30.419,12.174-46.669
		c-9.438-16.096-30.052-21.621-46.277-12.396l-14.766,8.526l-30.087,17.366l0,0l-14.212,8.21l34.102,59.065L261.169,213.326z"/>
	<path style="fill:#FFAF46;" d="M236.189,306.493l14.766-8.526l29.532-17.051l29.532-17.051
		c16.25-9.523,21.697-30.419,12.174-46.669c-9.438-16.096-30.052-21.621-46.277-12.396l-14.766,8.526l-59.065,34.102
		L236.189,306.493z"/>
</g>
<g>
	<path style="fill:#231F20;" d="M167.064,392.055c-8.065,0.009-16.122-0.443-24.136-1.347c-4.681-0.537-8.04-4.774-7.502-9.446
		c0.537-4.68,4.774-8.04,9.455-7.502c10.844,1.228,21.766,1.552,32.661,0.989c4.706-0.239,8.713,3.393,8.952,8.099
		c0.239,4.706-3.393,8.713-8.099,8.952C174.575,391.97,170.798,392.055,167.064,392.055z M211.789,387.792
		c-4.706-0.009-8.517-3.828-8.508-8.543c0.009-4.101,2.933-7.613,6.957-8.364c10.844-2.029,21.553-4.706,32.082-8.005
		c4.493-1.415,9.284,1.083,10.7,5.576c1.415,4.493-1.083,9.284-5.584,10.7c-11.177,3.513-22.55,6.36-34.059,8.526
		C212.846,387.767,212.318,387.809,211.789,387.792z M110.659,383.487c-0.929,0-1.859-0.153-2.737-0.452
		c-11.612-3.845-22.593-9.352-32.61-16.369c-3.794-2.788-4.621-8.116-1.833-11.919c2.728-3.726,7.929-4.595,11.723-1.969
		c8.645,6.036,18.125,10.785,28.134,14.093c4.467,1.5,6.872,6.334,5.371,10.793c-1.168,3.487-4.442,5.823-8.116,5.814
		L110.659,383.487z M276.779,367.544c-4.706-0.009-8.517-3.828-8.517-8.534c0-3.385,2.004-6.445,5.107-7.801
		c10.12-4.459,19.992-9.472,29.575-14.996c4.263-2.455,8.466-5.013,12.567-7.673c3.922-2.609,9.216-1.543,11.825,2.37
		c2.609,3.922,1.543,9.216-2.37,11.825c-0.077,0.051-0.162,0.102-0.239,0.153c-4.331,2.771-8.756,5.456-13.266,8.074
		c-10.12,5.823-20.547,11.1-31.229,15.815C279.141,367.271,277.964,367.527,276.779,367.544L276.779,367.544z M56.761,343.877
		c-2.907,0.009-5.61-1.466-7.178-3.905c-0.793-1.228-1.552-2.481-2.285-3.751c-5.499-9.583-9.293-20.052-11.203-30.931
		c-0.827-4.638,2.251-9.071,6.889-9.898c4.638-0.827,9.071,2.251,9.898,6.889c1.56,8.943,4.672,17.546,9.199,25.415
		c0.597,1.04,1.219,2.046,1.859,3.044c2.549,3.956,1.398,9.233-2.558,11.782c-1.373,0.887-2.967,1.356-4.604,1.356H56.761z
		 M347.763,324.354c-4.706,0-8.526-3.811-8.534-8.517c0-2.575,1.159-5.022,3.172-6.641c8.602-6.931,16.795-14.357,24.545-22.226
		c3.436-3.223,8.824-3.052,12.055,0.375c3.044,3.24,3.086,8.27,0.102,11.561c-8.21,8.329-16.881,16.19-25.986,23.53
		C351.599,323.672,349.715,324.346,347.763,324.354z M44.075,278.359c-0.384,0-0.776-0.026-1.159-0.077
		c-4.663-0.639-7.929-4.945-7.281-9.608v-0.009c1.714-11.91,4.783-23.573,9.156-34.784c1.773-4.365,6.752-6.454,11.109-4.68
		c4.237,1.722,6.36,6.488,4.808,10.785c-3.905,9.992-6.65,20.402-8.184,31.016C51.936,275.221,48.329,278.359,44.075,278.359z
		 M395.369,275.742c-4.706,0.026-8.543-3.777-8.568-8.483c-0.009-1.884,0.605-3.709,1.748-5.209
		c6.658-8.696,12.669-17.878,17.989-27.452c2.217-4.152,7.375-5.729,11.535-3.513c4.152,2.217,5.729,7.375,3.512,11.535
		c-0.043,0.077-0.077,0.145-0.119,0.213c-5.721,10.307-12.191,20.188-19.353,29.549C400.51,274.488,398.012,275.733,395.369,275.742
		z M427.826,216.063c-0.912,0-1.816-0.145-2.686-0.435c-4.467-1.483-6.889-6.317-5.397-10.785l0,0
		c3.436-10.111,5.627-20.606,6.513-31.255c0.426-4.689,4.578-8.142,9.267-7.716c4.595,0.418,8.022,4.408,7.733,9.011
		c-0.997,12.038-3.461,23.906-7.34,35.338c-1.142,3.504-4.408,5.866-8.091,5.874L427.826,216.063z M67.716,214.878
		c-4.706-0.009-8.517-3.828-8.517-8.534c0-1.535,0.418-3.044,1.211-4.365c6.07-10.094,12.839-19.745,20.257-28.884
		c2.873-3.734,8.219-4.433,11.953-1.56c3.734,2.873,4.433,8.219,1.56,11.953c-0.085,0.111-0.179,0.222-0.273,0.332
		c-6.914,8.517-13.215,17.511-18.867,26.907C73.505,213.309,70.717,214.886,67.716,214.878z M110.344,161.866
		c-4.706-0.009-8.526-3.828-8.517-8.534c0-2.31,0.938-4.519,2.6-6.121c8.423-8.108,17.29-15.738,26.566-22.857
		c3.777-2.805,9.122-2.012,11.927,1.765c2.745,3.692,2.055,8.892-1.543,11.757c-8.781,6.718-17.17,13.931-25.142,21.604
		C114.649,161.005,112.544,161.858,110.344,161.866z M431.901,148.984c-3.862,0-7.238-2.592-8.236-6.326
		c-1.731-6.565-4.331-12.874-7.724-18.756c-1.731-2.984-3.666-5.857-5.78-8.585c-2.975-3.649-2.421-9.02,1.228-11.995
		c3.649-2.975,9.02-2.421,11.995,1.228c0.077,0.094,0.153,0.196,0.23,0.298c7.699,9.907,13.325,21.263,16.531,33.394
		c1.211,4.553-1.492,9.225-6.036,10.435c-0.716,0.196-1.458,0.29-2.208,0.29L431.901,148.984L431.901,148.984z M164.319,120.39
		c-4.706,0-8.526-3.811-8.534-8.517c0-2.975,1.552-5.738,4.092-7.289c2.217-1.339,4.442-2.668,6.701-3.964
		c7.869-4.527,15.994-8.764,24.144-12.601c4.263-2.003,9.344-0.171,11.339,4.084c2.004,4.263,0.171,9.344-4.084,11.347l0,0
		c-7.733,3.632-15.431,7.673-22.9,11.936c-2.131,1.228-4.263,2.472-6.334,3.751C167.405,119.955,165.879,120.39,164.319,120.39z
		 M391.396,96.271c-1.56,0-3.086-0.426-4.416-1.236c-9.114-5.431-18.927-9.6-29.157-12.396c-4.544-1.219-7.247-5.9-6.028-10.444
		c1.219-4.544,5.9-7.247,10.444-6.028c0.068,0.017,0.136,0.034,0.205,0.06c11.731,3.214,22.976,7.997,33.429,14.229
		c4.024,2.438,5.311,7.681,2.865,11.714c-1.552,2.549-4.314,4.109-7.298,4.101L391.396,96.271L391.396,96.271z M225.95,91.488
		c-4.706,0.009-8.534-3.802-8.543-8.508c-0.009-3.657,2.319-6.914,5.789-8.091c11.075-3.785,22.371-6.914,33.812-9.378
		c4.629-0.87,9.088,2.165,9.958,6.795c0.844,4.467-1.969,8.807-6.386,9.873c-10.785,2.327-21.433,5.277-31.877,8.849
		C227.817,91.335,226.888,91.488,225.95,91.488z M292.492,77.361c-4.706,0.188-8.679-3.478-8.858-8.193
		c-0.188-4.706,3.478-8.679,8.185-8.858c11.774-0.972,23.616-1.032,35.398-0.179c4.698,0.273,8.287,4.305,8.014,9.011
		c-0.273,4.698-4.305,8.287-9.011,8.014c-0.094-0.009-0.196-0.017-0.29-0.026c-10.904-0.784-21.842-0.725-32.738,0.171
		C292.961,77.353,292.713,77.361,292.492,77.361z"/>
	<path style="fill:#231F20;" d="M329.885,213.019c-8.884-15.551-26.617-23.795-44.23-20.555
		c4.868-22.959-9.804-45.509-32.764-50.377c-10.273-2.174-20.998-0.469-30.087,4.791l-7.383,4.263l-8.526-14.766
		c-2.327-4.092-7.528-5.525-11.629-3.197c-4.092,2.327-5.525,7.528-3.197,11.629c0.017,0.034,0.034,0.068,0.06,0.094l8.526,14.766
		l-14.851,8.526c-2.004-3.615-4.723-8.372-8.44-14.809c-2.327-4.092-7.528-5.525-11.629-3.197
		c-4.092,2.327-5.525,7.528-3.197,11.629c0.017,0.034,0.034,0.068,0.06,0.094c2.89,5.004,6.079,10.631,8.398,14.843l-29.405,16.974
		c-4.092,2.327-5.525,7.528-3.197,11.629c2.327,4.092,7.528,5.525,11.629,3.197c0.034-0.017,0.068-0.034,0.094-0.06l14.766-8.526
		L224.56,303.33l-14.766,8.526c-4.092,2.327-5.525,7.528-3.197,11.629c2.327,4.092,7.528,5.525,11.629,3.197
		c0.034-0.017,0.068-0.034,0.102-0.06l29.532-17.051l8.526,14.766c2.379,4.058,7.605,5.422,11.663,3.044
		c4.024-2.362,5.405-7.511,3.103-11.569l-8.526-14.766l14.766-8.526l8.526,14.766c2.379,4.058,7.605,5.422,11.663,3.044
		c4.024-2.362,5.405-7.511,3.103-11.569l-8.526-14.766l22.166-12.788C334.667,259.424,341.633,233.387,329.885,213.019z
		 M231.33,161.645c12.405-6.761,27.938-2.183,34.699,10.222c6.522,11.97,2.507,26.949-9.122,34.059l-51.716,29.839l-25.577-44.333
		L231.33,161.645z M317.693,240.932c-1.739,6.565-6.045,12.157-11.936,15.533L239.31,294.83l-25.577-44.333l10.572-6.104
		l41.127-23.701l0,0l14.766-8.526c12.226-7.076,27.87-2.899,34.946,9.327c3.402,5.883,4.322,12.874,2.566,19.438H317.693z"/>
	<path style="fill:#231F20;" d="M494.564,157.22l-32.636-55.228c-0.622-1.151-1.125-2.362-1.782-3.495
		C410.8,13.292,271.468,1.066,149.527,71.266C77.299,112.836,23.767,176.487,6.299,241.537
		c-11.39,37.231-7.213,77.48,11.561,111.582c0.784,1.356,1.705,2.626,2.507,3.947l31.237,55.996
		c24.221,41.946,70.276,67.667,129.699,72.467c6.624,0.537,13.317,0.81,20.078,0.801c56.831-1.091,112.4-16.957,161.243-46.038
		C484.759,369.71,543.969,242.79,494.564,157.22z M471.673,210.078c4.271-15.67,6.258-31.868,5.891-48.101l2.276,3.845
		c20.632,35.739,19.66,79.816,1.432,123.39l-24.869-39.413C462.789,237.095,467.904,223.787,471.673,210.078z M35.294,348.822
		l-1.986-3.547c-0.256-0.358-0.537-0.682-0.853-0.989c-16.309-30.146-19.788-65.595-9.642-98.342
		C39.088,185.183,89.644,125.403,158.01,86.04c46.294-27.486,98.922-42.5,152.752-43.582c58.766,0,108.726,21.467,133.723,63.149
		c0.085,0.315,0.188,0.622,0.315,0.921l2.37,4.007c14.809,29.498,17.682,63.575,8.022,95.136
		c-16.275,60.761-66.832,120.542-135.198,159.905C208.311,429.857,82.184,421.946,35.294,348.822z M66.429,404.647l-3.052-5.431
		c24.468,14.476,51.92,23.189,80.259,25.474l26.642,42.252C122.732,460.319,86.012,438.562,66.429,404.647z M191.635,468.827
		l-27.086-42.977c1.049,0,2.08,0.094,3.137,0.094c24.579-0.179,49.047-3.427,72.825-9.659l25.841,44.767
		C241.935,467.131,216.777,469.748,191.635,468.827z M283.284,456.269l-25.875-44.819c21.902-6.889,43.071-15.9,63.225-26.898
		l25.935,44.929C326.432,440.531,305.229,449.509,283.284,456.269z M361.404,421.042l-25.943-44.947
		c18.961-11.467,36.805-24.681,53.319-39.456l27.452,43.011C399.393,395.261,381.029,409.132,361.404,421.042z M428.627,367.331
		l-27.222-42.628c17.554-17.281,32.9-36.677,45.671-57.743l25.525,40.471C460.768,329.324,445.968,349.479,428.627,367.331z"/>
</g>
<g>
</g>
<g>
</g>
<g>
</g>
<g>
</g>
<g>
</g>
<g>
</g>
<g>
</g>
<g>
</g>
<g>
</g>
<g>
</g>
<g>
</g>
<g>
</g>
<g>
</g>
<g>
</g>
<g>
</g>
</svg>
