<?xml version="1.0" encoding="iso-8859-1"?>
<!-- Generator: Adobe Illustrator 19.0.0, SVG Export Plug-In . SVG Version: 6.00 Build 0)  -->
<svg version="1.1" id="Capa_1" xmlns="http://www.w3.org/2000/svg" xmlns:xlink="http://www.w3.org/1999/xlink" x="0px" y="0px"
	 viewBox="0 0 512 512" style="enable-background:new 0 0 512 512;" xml:space="preserve">
<circle style="fill:#FFDB0C;" cx="256" cy="256" r="256"/>
<g>
	<path style="fill:#FBBF00;" d="M512,256c0,141.385-114.615,256-256,256c0-68.055,0-468.118,0-512C397.385,0,512,114.615,512,256z"
		/>
	<path style="fill:#FBBF00;" d="M256,448.266c-106.016,0-192.266-86.25-192.266-192.266S149.984,63.734,256,63.734
		S448.266,149.984,448.266,256S362.016,448.266,256,448.266z"/>
</g>
<path style="fill:#FFA900;" d="M256,448.266c0-92.477,0-345.865,0-384.531c106.016,0,192.266,86.25,192.266,192.266
	S362.016,448.266,256,448.266z"/>
<path style="fill:#FF8800;" d="M314.03,256c10.29-9.841,16.718-23.687,16.718-39.016c0-23.65-15.285-43.785-36.49-51.081v-21.688
	h-30v18.754h-15.612v-18.754h-30v18.754h-23.719V241v30v78.031h23.719v18.754h30v-18.754h15.612v18.754h30v-21.688
	c21.205-7.296,36.49-27.431,36.49-51.081C330.749,279.687,324.32,265.841,314.03,256z M224.927,192.969h51.806
	c13.242,0,24.016,10.773,24.016,24.016S289.975,241,276.733,241h-51.806V192.969z M276.733,319.031h-51.806V271h51.806
	c13.242,0,24.016,10.773,24.016,24.016S289.975,319.031,276.733,319.031z"/>
<path style="fill:#E47700;" d="M330.749,216.984c0-23.65-15.285-43.785-36.49-51.081v-21.688h-30v18.754H256v30h20.733
	c13.242,0,24.016,10.773,24.016,24.016S289.975,241,276.733,241H256v30h20.733c13.242,0,24.016,10.773,24.016,24.016
	s-10.773,24.016-24.016,24.016H256v30h8.258v18.754h30v-21.688c21.205-7.296,36.49-27.431,36.49-51.081
	c0-15.328-6.429-29.175-16.718-39.016C324.32,246.159,330.749,232.313,330.749,216.984z"/>
<g>
</g>
<g>
</g>
<g>
</g>
<g>
</g>
<g>
</g>
<g>
</g>
<g>
</g>
<g>
</g>
<g>
</g>
<g>
</g>
<g>
</g>
<g>
</g>
<g>
</g>
<g>
</g>
<g>
</g>
</svg>
