<svg id="Capa_1" enable-background="new 0 0 512 512" height="512" viewBox="0 0 512 512" width="512" xmlns="http://www.w3.org/2000/svg"><g><circle cx="256" cy="336.185" fill="#f6e266" r="168.315"/><path d="m256 167.87c-4.169 0-8.301.158-12.394.456 87.17 6.345 155.921 79.07 155.921 167.859s-68.751 161.514-155.921 167.859c4.093.298 8.225.455 12.394.455 92.958 0 168.315-75.357 168.315-168.315 0-92.957-75.357-168.314-168.315-168.314z" fill="#ecbe6b"/><path d="m313.508 85.746-57.508 56.894-57.508-56.893h25.342c3.31 0 5.994-2.683 5.994-5.994v-72.253h52.345v72.253c0 3.31 2.683 5.994 5.994 5.994h25.341z" fill="#dd636e"/><g fill="#c63d4f"><path d="m261.414 79.753v-72.253h20.758v72.253c0 3.31 2.683 5.994 5.994 5.994h-20.758c-3.31-.001-5.994-2.684-5.994-5.994z"/><path d="m256 142.64-10.379-10.268 47.129-46.626h20.758z"/></g><g><path d="m256 467.669c72.501 0 131.484-58.983 131.484-131.483 0-72.501-58.983-131.484-131.484-131.484s-131.484 58.983-131.484 131.484c-.001 72.5 58.983 131.483 131.484 131.483zm0-247.968c64.229 0 116.484 52.255 116.484 116.484s-52.255 116.484-116.484 116.484-116.484-52.254-116.484-116.483 52.254-116.485 116.484-116.485z"/><path d="m221.663 390c10.176 6.657 17.091 8.576 26.129 9.042v8.949c0 4.143 3.357 7.5 7.5 7.5s7.5-3.357 7.5-7.5v-9.53c17.76-3.33 28.133-17.902 30.421-31.512 2.92-17.37-6.169-32.473-23.156-38.478-2.386-.843-4.83-1.729-7.265-2.654v-38.66c9.027 1.095 15.502 4.989 15.646 5.077 3.498 2.183 8.11 1.133 10.315-2.36 2.21-3.504 1.161-8.136-2.342-10.346-.565-.356-10.171-6.284-23.619-7.462v-7.686c0-4.143-3.357-7.5-7.5-7.5s-7.5 3.357-7.5 7.5v8.574c-1.279.273-2.571.597-3.875.99-11.169 3.365-19.517 12.929-21.783 24.958-2.064 10.955 1.436 21.513 9.135 27.552 4.167 3.268 9.367 6.26 16.523 9.429v48.144c-6.427-.414-10.729-1.877-17.916-6.579-3.467-2.267-8.115-1.296-10.383 2.17s-1.296 8.114 2.17 10.382zm18.863-75.35c-3.276-2.569-4.676-7.54-3.652-12.971.939-4.984 4.306-11.002 10.918-13.216v30.77c-2.747-1.457-5.227-2.983-7.266-4.583zm24.531 27.963c14.921 5.273 14 18.057 13.362 21.849-1.266 7.53-6.581 15.538-15.628 18.508v-41.168c.747.269 1.49.537 2.266.811z"/><path d="m316.854 138.85c-2.586 3.236-2.059 7.956 1.178 10.541l21.597 17.255c1.369 1.094 3.025 1.641 4.682 1.641s3.312-.547 4.682-1.641l21.597-17.255c3.236-2.585 3.764-7.305 1.178-10.541-2.586-3.235-7.304-3.764-10.541-1.178l-9.415 7.522v-47.694c0-4.143-3.357-7.5-7.5-7.5s-7.5 3.357-7.5 7.5v47.694l-9.415-7.522c-3.239-2.586-7.959-2.059-10.543 1.178z"/><path d="m141.412 149.391 21.597 17.255c1.369 1.094 3.025 1.641 4.682 1.641s3.312-.547 4.682-1.641l21.597-17.255c3.236-2.585 3.764-7.305 1.178-10.541-2.586-3.235-7.304-3.764-10.541-1.178l-9.415 7.522v-47.694c0-4.143-3.357-7.5-7.5-7.5s-7.5 3.357-7.5 7.5v47.694l-9.415-7.522c-3.237-2.586-7.957-2.059-10.541 1.178-2.588 3.236-2.061 7.956 1.176 10.541z"/><path d="m256 160.37c-96.944 0-175.814 78.87-175.814 175.815 0 44.988 16.988 87.796 47.836 120.537 2.841 3.014 7.588 3.155 10.603.315 3.015-2.841 3.155-7.587.315-10.603-28.215-29.946-43.754-69.101-43.754-110.25 0-88.674 72.141-160.815 160.814-160.815s160.815 72.142 160.815 160.815-72.142 160.816-160.815 160.816c-34.717 0-67.774-10.892-95.599-31.497-3.331-2.466-8.025-1.764-10.491 1.563-2.465 3.329-1.765 8.026 1.563 10.491 30.427 22.533 66.571 34.443 104.527 34.443 96.945 0 175.815-78.87 175.815-175.814 0-96.946-78.87-175.816-175.815-175.816z"/><path d="m231.564 118.466c-2.913 2.944-2.888 7.693.058 10.606l19.104 18.899c1.461 1.445 3.367 2.168 5.274 2.168s3.813-.723 5.274-2.168l57.508-56.894c2.162-2.139 2.818-5.371 1.662-8.184s-3.896-4.648-6.937-4.648h-23.835v-70.745c0-4.143-3.357-7.5-7.5-7.5s-7.5 3.357-7.5 7.5v72.253c0 7.44 6.053 13.493 13.493 13.493h7.097l-39.262 38.844-13.829-13.682c-2.945-2.913-7.694-2.887-10.607.058z"/><path d="m210.304 107.982c1.462 1.446 3.368 2.168 5.274 2.168 1.933 0 3.865-.742 5.332-2.226 2.913-2.944 2.888-7.692-.058-10.606l-4.116-4.072h7.097c7.44 0 13.494-6.053 13.494-13.493v-72.253c0-4.143-3.357-7.5-7.5-7.5s-7.5 3.357-7.5 7.5v70.746h-23.835c-3.041 0-5.78 1.836-6.937 4.648s-.5 6.045 1.662 8.184z"/></g></g></svg>