<svg height="512" viewBox="0 0 64 64" width="512" xmlns="http://www.w3.org/2000/svg" xmlns:xlink="http://www.w3.org/1999/xlink"><linearGradient id="gradient_ice" gradientUnits="userSpaceOnUse" x1="4.529" x2="61.209" y1="63.865" y2="9.685"><stop offset="0" stop-color="#fff200"/><stop offset="1" stop-color="#cd118c"/></linearGradient><linearGradient id="gradient_ice-2" x1="-7.49" x2="49.19" xlink:href="#gradient_ice" y1="51.292" y2="-2.888"/><linearGradient id="gradient_ice-3" x1="-6.344" x2="50.336" xlink:href="#gradient_ice" y1="52.49" y2="-1.689"/><linearGradient id="gradient_ice-4" x1="1.883" x2="58.563" xlink:href="#gradient_ice" y1="61.097" y2="6.917"/><linearGradient id="gradient_ice-5" x1="6.07" x2="62.75" xlink:href="#gradient_ice" y1="65.477" y2="11.298"/><linearGradient id="gradient_ice-6" x1="14.297" x2="70.977" xlink:href="#gradient_ice" y1="74.084" y2="19.904"/><g id="laptop-bitcoin"><path d="m60 50.18v-32.12a3.035 3.035 0 0 0 -3-3.06h-14.05c.03-.33.05-.66.05-1a11 11 0 0 0 -22 0c0 .34.02.67.05 1h-14.05a3.035 3.035 0 0 0 -3 3.06v32.12a3.01 3.01 0 0 0 -2 2.82v1a6 6 0 0 0 6 6h48a6 6 0 0 0 6-6v-1a3.01 3.01 0 0 0 -2-2.82zm-28-45.18a9 9 0 1 1 -9 9 9.014 9.014 0 0 1 9-9zm-26 13.06a1.036 1.036 0 0 1 1-1.06h14.43a10.983 10.983 0 0 0 21.14 0h14.43a1.036 1.036 0 0 1 1 1.06v31.94h-52zm32 33.94v1a1 1 0 0 1 -1 1h-10a1 1 0 0 1 -1-1v-1zm22 2a4 4 0 0 1 -4 4h-48a4 4 0 0 1 -4-4v-1a1 1 0 0 1 1-1h19v1a3.009 3.009 0 0 0 3 3h10a3.009 3.009 0 0 0 3-3v-1h19a1 1 0 0 1 1 1z" fill="url(#gradient_ice)"/><path d="m37 12a3.01 3.01 0 0 0 -2-2.82v-1.18h-2v1h-2v-1h-2v1h-2v2h1v6h-1v2h2v1h2v-1h2v1h2v-1.18a3.01 3.01 0 0 0 2-2.82 2.974 2.974 0 0 0 -.78-2 2.974 2.974 0 0 0 .78-2zm-3 5h-4v-2h4a1 1 0 0 1 0 2zm0-4h-4v-2h4a1 1 0 0 1 0 2z" fill="url(#gradient_ice-2)"/><path d="m16 28h-2v-3h-2v3h-2a1 1 0 0 0 -1 1v10a1 1 0 0 0 1 1h2v3h2v-3h2a1 1 0 0 0 1-1v-10a1 1 0 0 0 -1-1zm-1 10h-4v-8h4z" fill="url(#gradient_ice-3)"/><path d="m26 48v-3h2a1 1 0 0 0 1-1v-10a1 1 0 0 0 -1-1h-2v-3h-2v3h-2a1 1 0 0 0 -1 1v10a1 1 0 0 0 1 1h2v3zm-3-13h4v8h-4z" fill="url(#gradient_ice-4)"/><path d="m36 40h2v3h2v-3h2a1 1 0 0 0 1-1v-10a1 1 0 0 0 -1-1h-2v-3h-2v3h-2a1 1 0 0 0 -1 1v10a1 1 0 0 0 1 1zm1-10h4v8h-4z" fill="url(#gradient_ice-5)"/><path d="m48 45h2v3h2v-3h2a1 1 0 0 0 1-1v-10a1 1 0 0 0 -1-1h-2v-3h-2v3h-2a1 1 0 0 0 -1 1v10a1 1 0 0 0 1 1zm1-10h4v8h-4z" fill="url(#gradient_ice-6)"/></g></svg>