<svg id="Capa_1" enable-background="new 0 0 511.979 511.979" height="512" viewBox="0 0 511.979 511.979" width="512" xmlns="http://www.w3.org/2000/svg" xmlns:xlink="http://www.w3.org/1999/xlink"><linearGradient id="SVGID_1_" gradientUnits="userSpaceOnUse" x1="255.99" x2="255.99" y1="511.979" y2="0"><stop offset="0" stop-color="#fd5900"/><stop offset="1" stop-color="#ffde00"/></linearGradient><g><g><path d="m316.979 0c-107.523 0-195 87.477-195 195 0 48.374 17.712 92.685 46.984 126.804l-16.984 16.983-10.606-10.607c-2.813-2.813-6.628-4.394-10.606-4.394s-7.794 1.581-10.606 4.394l-107 107c-17.545 17.545-17.546 46.093-.001 63.639 8.773 8.774 20.295 13.16 31.82 13.16 11.522 0 23.048-4.387 31.819-13.159l107-107c5.858-5.858 5.858-15.355 0-21.213l-10.607-10.607 16.984-16.983c34.118 29.271 78.429 46.983 126.803 46.983 107.523 0 195-87.477 195-195s-87.477-195-195-195zm-261.394 477.607c-5.85 5.85-15.364 5.848-21.214 0-5.848-5.848-5.848-15.364.001-21.213l96.394-96.394 21.213 21.213zm261.394-117.607c-90.981 0-165-74.019-165-165s74.019-165 165-165 165 74.019 165 165-74.019 165-165 165zm45-210c0 8.284 6.716 15 15 15s15-6.716 15-15c0-16.612-8.593-32.584-23.574-43.82-10.232-7.675-22.823-12.802-36.426-14.983v-16.197c0-8.284-6.716-15-15-15s-15 6.716-15 15v16.197c-13.603 2.181-26.194 7.308-36.426 14.983-14.981 11.236-23.574 27.208-23.574 43.82s8.593 32.584 23.574 43.82c10.232 7.675 22.823 12.802 36.426 14.983v59.409c-17.28-4.223-30-15.437-30-28.212 0-8.284-6.716-15-15-15s-15 6.716-15 15c0 16.612 8.593 32.584 23.574 43.82 10.232 7.675 22.823 12.802 36.426 14.983v16.197c0 8.284 6.716 15 15 15s15-6.716 15-15v-16.197c13.603-2.181 26.194-7.308 36.426-14.983 14.981-11.236 23.574-27.208 23.574-43.82s-8.593-32.584-23.574-43.82c-10.232-7.675-22.823-12.802-36.426-14.983v-59.409c17.28 4.223 30 15.437 30 28.212zm-60 28.212c-17.28-4.223-30-15.437-30-28.212s12.72-23.989 30-28.212zm60 61.788c0 12.775-12.72 23.989-30 28.212v-56.424c17.28 4.223 30 15.437 30 28.212z" fill="url(#SVGID_1_)"/></g></g></svg>