<svg id="Capa_1" enable-background="new 0 0 512 512" height="512" viewBox="0 0 512 512" width="512" xmlns="http://www.w3.org/2000/svg"><g><g><path d="m196 10c-77.32 0-140 62.68-140 140s62.68 140 140 140c47.57 0 89.61-23.73 114.91-60v-160c-25.3-36.27-67.34-60-114.91-60z" fill="#eefaff"/><path d="m456 70v160c-10.082 0-302.511 0-320 0v-160z" fill="#aaf9dd"/><path d="m176 110v80h240v-80c-6.771 0-233.232 0-240 0z" fill="#eefaff"/><path d="m216 356v40h-40v-40z" fill="#fff2a0"/><path d="m216 396v86c0 11.05-8.95 20-20 20s-20-8.95-20-20v-86z" fill="#ff9256"/><circle cx="296" cy="150" fill="#aaf9dd" r="40"/></g><g><path d="m426 190v-80c0-5.522-4.478-10-10-10h-240c-5.522 0-10 4.478-10 10v80c0 5.522 4.478 10 10 10h240c5.522 0 10-4.478 10-10zm-210-30h31.006c1.505 7.386 4.645 14.183 9.021 20h-70.027v-60.01h70.027c-4.377 5.827-7.516 12.624-9.021 20.01h-31.006c-5.522 0-10 4.478-10 10s4.478 10 10 10zm80 20c-16.542 0-30-13.458-30-30s13.458-30 30-30 30 13.458 30 30-13.458 30-30 30zm110 0h-70.027c4.377-5.817 7.516-12.614 9.021-20h31.006c5.522 0 10-4.478 10-10s-4.478-10-10-10h-31.006c-1.505-7.386-4.645-14.183-9.021-20h70.027z"/><circle cx="97" cy="51" r="10"/><path d="m75.166 78.546c-4.939-2.466-10.946-.466-13.416 4.475-10.451 20.91-15.75 43.445-15.75 66.979 0 79.349 61.935 144.494 140 149.659v46.341h-10c-5.522 0-10 4.478-10 10v126c0 16.542 13.458 30 30 30s30-13.458 30-30v-126c0-5.522-4.478-10-10-10h-10v-46.345c43.469-2.909 83.716-24.661 110.003-59.655h139.997c5.522 0 10-4.478 10-10v-160c0-5.522-4.478-10-10-10h-139.997c-28.293-37.664-72.756-60-120.003-60-23.534 0-46.069 5.299-66.979 15.75-4.94 2.47-6.943 8.476-4.475 13.416 2.47 4.94 8.475 6.943 13.416 4.475 18.108-9.052 37.636-13.641 58.038-13.641 35.642 0 69.457 14.67 93.796 40h-153.796c-5.522 0-10 4.478-10 10v160c0 5.522 4.478 10 10 9.99h153.796c-24.339 25.34-58.154 40.01-93.796 40.01-71.683 0-130-58.317-130-130 0-20.402 4.589-39.93 13.641-58.038 2.468-4.941.465-10.946-4.475-13.416zm70.834 141.454v-140h300v140c-13.611 0-287.384 0-300 0zm60 262c0 5.514-4.486 10-10 10s-10-4.486-10-10v-76h20zm0-116v20h-20v-20z"/></g></g></svg>